<?xml version="1.0" standalone="no"?>
<!DOCTYPE svg PUBLIC "-//W3C//DTD SVG 20010904//EN"
 "http://www.w3.org/TR/2001/REC-SVG-20010904/DTD/svg10.dtd">
<svg version="1.0" xmlns="http://www.w3.org/2000/svg"
 width="256.000000pt" height="253.000000pt" viewBox="0 0 256.000000 253.000000"
 preserveAspectRatio="xMidYMid meet">

<g transform="translate(0.000000,253.000000) scale(0.100000,-0.100000)"
fill="#000000" stroke="none">
<path d="M888 2500 c-670 -223 -1038 -936 -826 -1599 29 -92 105 -261 117
-261 3 0 183 418 400 929 216 511 401 936 409 945 24 23 4 20 -100 -14z"/>
<path d="M1630 2506 c0 -6 751 -1820 755 -1825 7 -7 64 118 94 207 37 111 57
220 67 357 31 464 -243 942 -669 1166 -115 60 -247 111 -247 95z"/>
<path d="M1064 1334 c-131 -301 -241 -552 -243 -558 -2 -6 7 -1 20 10 47 42
193 73 344 74 144 0 337 -37 433 -83 57 -28 55 -47 -4 -47 -62 0 -228 -35
-316 -66 -116 -42 -265 -123 -368 -200 -87 -66 -290 -262 -290 -281 0 -10 164
-80 258 -109 234 -73 516 -72 760 2 76 23 271 115 315 149 18 13 0 59 -318
822 -185 444 -340 814 -344 821 -4 7 -107 -216 -247 -534z"/>
</g>
</svg>
